<svg xmlns="http://www.w3.org/2000/svg" viewBox="0 0 392 133"><defs><style>.cls-1{fill:#050505;}.cls-2{fill:#f41c92;}.cls-3{fill:#1ccfd3;}</style></defs><title>logo1</title><g id="logo_7" data-name="logo 7"><g id="Layer_3" data-name="Layer 3"><circle class="cls-1" cx="106.83" cy="57.73" r="13.32"/><circle class="cls-1" cx="284.69" cy="57.73" r="13.32"/><path class="cls-2" d="M131.1,0h-110a20.86,20.86,0,1,0,0,41.72h2.13V61.57A69.5,69.5,0,0,0,92.69,131a83.3,83.3,0,0,0,83.2-83.22v-3A44.84,44.84,0,0,0,131.1,0Zm31.46,47.78a70,70,0,0,1-69.87,69.9A56.17,56.17,0,0,1,36.58,61.57V38.46a25.16,25.16,0,0,1,19.14-24.4,24.36,24.36,0,0,1,6-.73H131.1a31.49,31.49,0,0,1,31.46,31.46Z"/><path class="cls-2" d="M371.45,0h-110a44.84,44.84,0,0,0-44.78,44.78v3A83.3,83.3,0,0,0,299.89,131a69.52,69.52,0,0,0,69.43-69.43V41.72h2.13a20.86,20.86,0,1,0,0-41.72ZM356,61.57a56.18,56.18,0,0,1-56.11,56.11A70,70,0,0,1,230,47.78v-3a31.51,31.51,0,0,1,31.46-31.46h69.41a24.36,24.36,0,0,1,6,.73,25.21,25.21,0,0,1,17,14.34A25,25,0,0,1,356,38.46Z"/><rect class="cls-3" x="161" y="26.06" width="71" height="14.54" rx="7.27" ry="7.27"/></g></g></svg>