<svg xmlns="http://www.w3.org/2000/svg" viewBox="0 0 83 83"><defs><style>.cls-1{fill:#f2f4f4;}.cls-2{fill:#f41c92;}</style></defs><title>logo7</title><g id="logo_6" data-name="logo 6"><rect class="cls-1" y="0.43" width="82.87" height="82.87" rx="3.77" ry="3.77"/><path class="cls-2" d="M70.33,67.37A6.67,6.67,0,0,1,68,65.88a13.17,13.17,0,0,1-2.62-3.45q-1.57-2.74-3.15-6.28T59.8,50.89a19.36,19.36,0,0,0-2.72-4.09,10.66,10.66,0,0,0-3.84-2.6,15,15,0,0,0-5.7-1.06v-.08q7.67-1.1,12.18-4.84t4.5-10.44a13.1,13.1,0,0,0-1.51-6.44A11.23,11.23,0,0,0,58.45,17a21.09,21.09,0,0,0-6.27-2.35,38,38,0,0,0-7.85-.74H39.79v2.43a27,27,0,0,1,3.49-.28,14.1,14.1,0,0,1,4.11.55,9,9,0,0,1,3.29,1.84A8.22,8.22,0,0,1,53,22.11a17.88,17.88,0,0,1,.8,5.73q0,6.75-2.84,10.14t-9.81,3.39l-1.34,0v2.21c.58,0,1.36,0,2.35,0a4.36,4.36,0,0,1,1.94.45,5.66,5.66,0,0,1,1.8,1.51,24.93,24.93,0,0,1,1.53,2,22.78,22.78,0,0,1,1.53,2.82q.88,1.86,1.35,3,3.21,7.91,4.54,10.4a12.82,12.82,0,0,0,3,3.9,8.11,8.11,0,0,0,3.43,1.78,23.27,23.27,0,0,0,4.7.37h6.5V67.65A7.7,7.7,0,0,1,70.33,67.37Z"/><path class="cls-2" d="M18.75,23.41a8.43,8.43,0,0,0-1.5.15v-.2a10.7,10.7,0,0,1,8.94-5.65V15.57a19.21,19.21,0,0,0-9,3.71q-5.23,3.92-5.23,9.77a7.09,7.09,0,0,0,1.64,4.66,5.5,5.5,0,0,0,4.49,2,5.84,5.84,0,0,0,4.34-1.77,6,6,0,0,0,1.74-4.35A6.58,6.58,0,0,0,22.7,25,5.08,5.08,0,0,0,18.75,23.41Z"/><path class="cls-2" d="M29.7,63.18a5.09,5.09,0,0,1-2.27.55,4.64,4.64,0,0,1-4.24-2.45,12.51,12.51,0,0,1-1.45-6.41,18.37,18.37,0,0,1,.12-2.13q.12-1,.46-2.62a9.6,9.6,0,0,1,1.11-2.9,13.09,13.09,0,0,1,1.93-2.5,8,8,0,0,1,3.11-1.88,13.3,13.3,0,0,1,4.46-.69,22.89,22.89,0,0,1,2.45.17V40c-1.21-.09-2.47-.15-3.8-.15a33,33,0,0,0-8.08.92,21.33,21.33,0,0,0-6.1,2.46,16.61,16.61,0,0,0-4.15,3.62,13.78,13.78,0,0,0-2.44,4.34,14.82,14.82,0,0,0-.75,4.69,12.75,12.75,0,0,0,3.13,8.63q3.13,3.62,9,3.62a14.26,14.26,0,0,0,7.48-1.9Z"/></g></svg>